<?xml version="1.0" encoding="UTF-8" standalone="no"?>
<!-- Created with Inkscape (http://www.inkscape.org/) -->

<svg
   width="109.37267mm"
   height="109.37267mm"
   viewBox="0 0 109.37267 109.37268"
   version="1.1"
   id="svg1"
   inkscape:version="1.4 (86a8ad7, 2024-10-11)"
   sodipodi:docname="revolving_arrows.svg"
   xmlns:inkscape="http://www.inkscape.org/namespaces/inkscape"
   xmlns:sodipodi="http://sodipodi.sourceforge.net/DTD/sodipodi-0.dtd"
   xmlns="http://www.w3.org/2000/svg"
   xmlns:svg="http://www.w3.org/2000/svg">
  <sodipodi:namedview
     id="namedview1"
     pagecolor="#ffffff"
     bordercolor="#000000"
     borderopacity="0.25"
     inkscape:showpageshadow="2"
     inkscape:pageopacity="0.0"
     inkscape:pagecheckerboard="0"
     inkscape:deskcolor="#d1d1d1"
     inkscape:document-units="mm"
     inkscape:zoom="0.69670056"
     inkscape:cx="156.45172"
     inkscape:cy="307.87976"
     inkscape:window-width="1366"
     inkscape:window-height="705"
     inkscape:window-x="-8"
     inkscape:window-y="-8"
     inkscape:window-maximized="1"
     inkscape:current-layer="g10" />
  <defs
     id="defs1">
    <clipPath
       clipPathUnits="userSpaceOnUse"
       id="clipEmfPath1">
      <path
         d="m 141.98201,-6.8700972 h 2.29003 v 0.7633441 h -2.29003 z m -1.52669,0.7633441 h 3.81672 v 0.7633442 h -3.81672 z m -1.52669,0.7633442 h 6.10676 v 0.7633441 h -6.10676 z m -1.52669,0.7633441 h 7.63345 v 0.7633441 h -7.63345 z m -2.29003,0.7633441 h 10.68682 v 0.7633442 h -10.68682 z m -1.52669,0.7633442 h 12.21351 v 0.7633441 h -12.21351 z m -1.52669,0.7633441 h 14.50354 v 0.7633441 h -14.50354 z m -1.52668,0.7633441 h 16.03022 v 0.76334417 h -16.03022 z m -2.29004,0.76334417 h 19.08361 V 0 H 128.24181 Z M 126.71513,0 h 20.61029 v 0.76334413 h -20.61029 z m -1.52669,0.76334413 h 22.13698 V 1.5266883 h -22.13698 z m -1.52669,0.76334417 h 24.42701 v 0.7633441 h -24.42701 z m -2.29003,0.7633441 h 26.71704 v 0.7633441 h -26.71704 z m -1.52669,0.7633441 h 29.00708 v 0.7633442 h -29.00708 z m -1.52669,0.7633442 h 30.53377 v 0.7633441 h -30.53377 z m -1.52669,0.7633441 h 32.8238 v 0.7633441 h -32.8238 z m -2.29003,0.7633441 h 35.11383 v 0.7633442 h -35.11383 z m -1.52669,0.7633442 h 37.40386 v 0.7633441 h -37.40386 z m -1.52669,0.7633441 h 38.93055 v 0.7633441 h -38.93055 z m -1.52668,0.7633441 h 40.45723 v 0.7633442 h -40.45723 z m -2.29004,0.7633442 h 43.51062 v 0.7633441 h -43.51062 z m -1.52669,0.7633441 h 45.03731 v 0.7633441 h -45.03731 z m -1.52668,0.7633441 h 47.32733 v 0.7633443 h -47.32733 z m -1.52669,0.7633443 h 48.85402 v 0.763344 h -48.85402 z m -1.52669,0.763344 h 51.14406 v 0.763344 h -51.14406 z m -2.290033,0.763344 H 152.66883 V 12.97685 H 99.234737 Z m -1.526688,0.763344 h 55.724121 v 0.763344 H 97.708049 Z m -1.526688,0.763344 h 57.250809 v 0.763345 H 96.181361 Z m -1.526689,0.763345 h 58.777498 v 0.763344 H 94.654672 Z m -2.290032,0.763344 h 61.83087 v 0.763344 H 92.36464 Z m -1.526688,0.763344 h 63.357558 v 0.763344 H 90.837952 Z m -1.526689,0.763344 h 65.647597 v 0.763344 H 89.311263 Z m -1.526688,0.763344 h 67.174285 v 0.763344 H 87.784575 Z m -2.290032,0.763344 H 155.7222 v 0.763344 H 85.494543 Z m -1.526688,0.763344 H 155.7222 v 0.763344 H 83.967855 Z m -1.526689,0.763344 h 74.044384 v 0.763345 H 82.441166 Z m -1.526688,0.763345 h 75.571072 v 0.763344 H 80.914478 Z m -2.290032,0.763344 H 156.48555 V 22.13698 H 78.624446 Z m -1.526689,0.763344 h 80.151133 v 0.763344 H 77.097757 Z m -1.526688,0.763344 h 81.677821 v 0.763344 H 75.571069 Z m -1.526688,0.763344 h 83.967859 v 0.763344 H 74.044381 Z m -2.290033,0.763344 h 86.257892 v 0.763344 H 71.754348 Z m 0.763345,0.763344 h 86.257887 v 1.526689 H 72.517693 Z m 0.763344,1.526689 h 86.257883 v 1.526688 H 73.281037 Z m 0.763344,1.526688 h 85.494539 v 0.763344 H 74.044381 Z m 0,0.763344 h 86.257889 v 0.763344 H 74.044381 Z m 0.763344,0.763344 h 85.494545 v 0.763344 H 74.807725 Z m 0,0.763344 h 86.257885 v 0.763344 H 74.807725 Z m 0.763344,0.763344 h 85.494541 v 0.763345 H 75.571069 Z m 0,0.763345 h 86.257891 v 1.526688 H 75.571069 Z m 0.763344,1.526688 H 162.5923 V 35.11383 H 76.334413 Z m 0.763344,1.526688 h 86.257883 v 1.526688 H 77.097757 Z m 0.763344,1.526688 h 85.494539 v 0.763344 H 77.861101 Z m 0,0.763344 h 86.257889 v 0.763345 H 77.861101 Z m 0.763345,0.763345 h 85.494544 v 0.763344 H 78.624446 Z m 0,0.763344 h 86.257884 v 1.526688 H 78.624446 Z m 0.763344,1.526688 h 86.25789 v 1.526688 H 79.38779 Z m 0.763344,1.526688 h 86.257886 v 1.526689 H 80.151134 Z m 0.763344,1.526689 H 166.40902 V 44.27396 H 80.914478 Z m 0,0.763344 h 86.257882 v 0.763344 H 80.914478 Z m 0.763344,0.763344 h 85.494538 v 0.763344 H 81.677822 Z m 0,0.763344 h 86.257888 v 1.526688 H 81.677822 Z m 0.763344,1.526688 h 86.257884 v 1.526688 H 82.441166 Z m 0.763344,1.526688 h 86.25789 v 1.526689 H 83.20451 Z m 0.763345,1.526689 H 169.4624 v 0.763344 H 83.967855 Z m 0,0.763344 h 86.257885 v 0.763344 H 83.967855 Z m 0.763344,0.763344 h 85.494541 v 0.763344 H 84.731199 Z m 0,0.763344 h 86.257891 v 1.526688 H 84.731199 Z m 0.763344,1.526688 h 86.257887 v 1.526689 H 85.494543 Z m 0.763344,1.526689 H 172.51577 V 57.25081 H 86.257887 Z m 0.763344,1.526688 h 85.494539 v 0.763344 H 87.021231 Z m 0,0.763344 h 86.257889 v 0.763344 H 87.021231 Z m 0.763344,0.763344 h 85.494545 v 0.763344 H 87.784575 Z m 0,0.763344 h 86.257885 v 1.526689 H 87.784575 Z m 0.763344,1.526689 h 86.257891 v 1.526688 H 88.547919 Z m 0.763344,1.526688 h 86.257887 v 1.526688 H 89.311263 Z m 0.763345,1.526688 h 85.494542 v 0.763344 H 90.074608 Z m 0,0.763344 h 83.967852 v 0.763344 H 90.074608 Z m 0.763344,0.763344 h 81.677818 v 0.763344 H 90.837952 Z m 0,0.763344 h 80.151138 v 0.763345 H 90.837952 Z m 0.763344,0.763345 H 169.4624 v 0.763344 H 91.601296 Z m 0,0.763344 h 75.571064 v 0.763344 H 91.601296 Z m 0,0.763344 h 74.044384 v 0.763344 H 91.601296 Z m 0.763344,0.763344 h 71.75435 V 70.22766 H 92.36464 Z m 0,0.763344 h 70.22766 v 0.763344 H 92.36464 Z m 0.763344,0.763344 h 67.174286 v 0.763344 H 93.127984 Z m 0,0.763344 h 65.647596 v 0.763345 H 93.127984 Z m 0.763344,0.763345 h 63.357562 v 0.763344 H 93.891328 Z m 0,0.763344 H 155.7222 v 0.763344 H 93.891328 Z m 0.763344,0.763344 h 58.777498 v 0.763344 H 94.654672 Z m 0,0.763344 h 57.250808 v 0.763344 H 94.654672 Z m 0,0.763344 h 55.724118 v 0.763344 H 94.654672 Z m 0.763345,0.763344 h 53.434093 v 0.763344 H 95.418017 Z m 0,0.763344 h 51.144053 v 0.763344 H 95.418017 Z m 0.763344,0.763344 h 48.854029 v 0.763345 H 96.181361 Z m 0,0.763345 H 143.5087 V 79.38779 H 96.181361 Z m 0.763344,0.763344 h 45.037305 v 0.763344 H 96.944705 Z m 0,0.763344 h 42.747275 v 0.763344 H 96.944705 Z m 0.763344,0.763344 h 40.457241 v 0.763344 H 97.708049 Z m 0,0.763344 H 136.6386 v 0.763344 H 97.708049 Z m 0,0.763344 H 135.11191 V 83.20451 H 97.708049 Z m 0.763344,0.763344 h 35.113827 v 0.763345 H 98.471393 Z m 0,0.763345 h 32.823797 v 0.763344 H 98.471393 Z m 0.763344,0.763344 H 129.7685 v 0.763344 H 99.234737 Z m 0,0.763344 h 29.007073 v 0.763344 H 99.234737 Z m 0.763344,0.763344 h 26.717049 v 0.763344 H 99.998081 Z m 0,0.763344 h 24.427009 v 0.763344 H 99.998081 Z m 0.763349,0.763344 h 22.13698 v 0.763344 h -22.13698 z m 0,0.763344 h 20.61029 v 0.763344 h -20.61029 z m 0,0.763344 h 19.0836 v 0.763345 h -19.0836 z m 0.76334,0.763345 H 117.555 v 0.763344 h -16.03023 z m 0,0.763344 h 14.50354 v 0.763344 h -14.50354 z m 0.76334,0.763344 h 12.21351 v 0.763344 h -12.21351 z m 0,0.763344 h 10.68682 v 0.763344 h -10.68682 z m 0.76335,0.763344 h 7.63344 v 0.763344 h -7.63344 z m 0,0.763344 h 6.10675 v 0.763344 h -6.10675 z m 0.76334,0.763344 h 3.81672 v 0.763345 h -3.81672 z m 0,0.763345 h 2.29003 v 0.763344 h -2.29003 z"
         id="path1" />
    </clipPath>
    <clipPath
       clipPathUnits="userSpaceOnUse"
       id="clipEmfPath2">
      <path
         d="m 82.441166,302.28428 h 1.526689 v 0.76334 h -1.526689 z m -0.763344,0.76334 h 3.053377 v 0.76334 h -3.053377 z m -0.763344,0.76334 h 5.343409 v 0.76335 h -5.343409 z m 0,0.76335 h 6.106753 v 0.76334 h -6.106753 z m -0.763344,0.76334 h 8.396785 V 306.101 H 80.151134 Z M 79.38779,306.101 h 9.923473 v 0.76334 H 79.38779 Z m 0,0.76334 h 10.686818 v 0.76335 H 79.38779 Z m -0.763344,0.76335 h 12.97685 v 0.76334 h -12.97685 z m -0.763345,0.76334 H 92.36464 v 0.76334 H 77.861101 Z m -0.763344,0.76334 h 16.793571 v 0.76335 H 77.097757 Z m 0,0.76335 h 17.556915 v 0.76334 H 77.097757 Z m -0.763344,0.76334 h 19.083604 v 0.76335 H 76.334413 Z m -0.763344,0.76335 h 21.373636 v 0.76334 H 75.571069 Z m 0,0.76334 h 22.13698 v 0.76334 h -22.13698 z m -0.763344,0.76334 h 24.427012 v 0.76335 H 74.807725 Z m -0.763344,0.76335 h 25.9537 v 0.76334 h -25.9537 z m 0,0.76334 h 26.717049 v 0.76335 H 74.044381 Z m -0.763344,0.76335 h 29.007073 v 0.76334 H 73.281037 Z m -0.763344,0.76334 h 30.533767 v 0.76334 H 72.517693 Z m -0.763345,0.76334 h 32.823802 v 0.76335 H 71.754348 Z m 0,0.76335 h 33.587142 v 0.76334 H 71.754348 Z m -0.763344,0.76334 h 35.877176 v 0.76335 H 70.991004 Z m -0.763344,0.76335 h 37.40386 v 0.76334 H 70.22766 Z m 0,0.76334 h 38.16721 v 0.76335 H 70.22766 Z m -0.763344,0.76335 h 40.457244 v 0.76334 H 69.464316 Z m -0.763344,0.76334 H 110.6849 v 0.76334 H 68.700972 Z m 0,0.76334 h 43.510618 v 0.76335 H 68.700972 Z m -0.763344,0.76335 h 45.037302 v 0.76334 H 67.937628 Z m -0.763344,0.76334 h 46.563996 v 0.76335 H 67.174284 Z m -0.763345,0.76335 h 48.854021 v 0.76334 H 66.410939 Z m 0,0.76334 h 49.617371 v 0.76334 H 66.410939 Z m -0.763344,0.76334 H 117.555 v 0.76335 H 65.647595 Z m -0.763344,0.76335 h 53.434089 v 0.76334 H 64.884251 Z m 0,0.76334 h 54.197429 v 0.76335 H 64.884251 Z m -0.763344,0.76335 h 56.487463 v 0.76334 H 64.120907 Z m -0.763344,0.76334 h 58.014157 v 0.76335 H 63.357563 Z m -0.763344,0.76335 h 60.304191 v 0.76334 H 62.594219 Z m 0,0.76334 h 61.067531 v 0.76334 H 62.594219 Z m -0.763344,0.76334 h 62.594215 v 0.76335 H 61.830875 Z m -0.763344,0.76335 h 64.884249 v 0.76334 H 61.067531 Z m 0,0.76334 h 65.647599 v 0.76335 H 61.067531 Z m -0.763345,0.76335 h 67.937624 v 0.76334 H 60.304186 Z m -0.763344,0.76334 h 69.464318 v 0.76334 H 59.540842 Z m 0,0.76334 h 70.991008 v 0.76335 H 59.540842 Z m -0.763344,0.76335 h 72.517692 v 0.76334 H 58.777498 Z m -0.763344,0.76334 h 74.044376 v 0.76335 H 58.014154 Z m -0.763344,0.76335 h 76.33441 v 0.76334 H 57.25081 Z m 0,0.76334 h 77.09776 v 0.76334 H 57.25081 Z m -0.763344,0.76334 h 79.387794 v 0.76335 H 56.487466 Z m -0.763344,0.76335 H 136.6386 v 0.76334 H 55.724122 Z m 0,0.76334 h 81.677818 v 0.76335 H 55.724122 Z m -0.763344,0.76335 h 83.967852 v 0.76334 H 54.960778 Z m -0.763345,0.76334 h 85.494547 v 0.76335 H 54.197433 Z m 0,0.76335 h 87.021227 v 0.76334 H 54.197433 Z m -0.763344,0.76334 h 88.547921 v 0.76334 H 53.434089 Z m -0.763344,0.76334 h 90.074605 v 0.76335 H 52.670745 Z m -0.763344,0.76335 h 92.364639 v 0.76334 H 51.907401 Z m 0,0.76334 h 93.127989 v 0.76335 H 51.907401 Z m -0.763344,0.76335 h 95.418013 v 0.76334 H 51.144057 Z m -0.763344,0.76334 h 96.944707 v 0.76334 H 50.380713 Z m 0,0.76334 h 97.708047 v 0.76335 H 50.380713 Z m -0.763344,0.76335 h 98.471391 v 0.76334 H 49.617369 Z m -0.763345,0.76334 h 98.471396 v 0.76335 H 48.854024 Z m -0.763344,0.76335 h 98.47139 v 1.52668 H 48.09068 Z m -0.763344,1.52668 h 98.471394 v 0.76335 H 47.327336 Z m -0.763344,0.76335 h 98.471398 v 1.52669 H 46.563992 Z m -0.763344,1.52669 h 98.471392 v 0.76334 H 45.800648 Z m -0.763344,0.76334 H 143.5087 v 0.76335 H 45.037304 Z m 0,0.76335 h 97.708046 v 0.76334 H 45.037304 Z m -0.763344,0.76334 h 98.47139 v 0.76334 H 44.27396 Z m -0.763344,0.76334 h 98.471394 v 0.76335 H 43.510616 Z m -0.763345,0.76335 h 98.471389 v 1.52669 H 42.747271 Z m -0.763344,1.52669 h 98.471393 v 0.76334 H 41.983927 Z m -0.763344,0.76334 h 98.471397 v 1.52669 H 41.220583 Z m -0.763344,1.52669 h 98.471391 v 0.76334 H 40.457239 Z m -0.763344,0.76334 h 98.471395 v 0.76335 H 39.693895 Z m 0,0.76335 h 97.708045 v 0.76334 H 39.693895 Z m -0.763344,0.76334 h 98.471389 v 0.76335 H 38.930551 Z m -0.763344,0.76335 H 136.6386 v 0.76334 H 38.167207 Z m -0.763345,0.76334 h 98.471398 v 1.52669 H 37.403862 Z m -0.763344,1.52669 h 98.471392 v 0.76334 H 36.640518 Z m -0.763344,0.76334 h 98.471396 v 1.52669 H 35.877174 Z m -0.763344,1.52669 h 98.47139 v 0.76334 H 35.11383 Z m -0.763344,0.76334 h 98.471394 v 0.76335 H 34.350486 Z m -0.763344,0.76335 h 98.471388 v 0.76334 H 33.587142 Z m 1.526688,0.76334 h 96.9447 v 0.76335 h -96.9447 z m 0.763344,0.76335 h 95.418016 v 0.76334 H 35.877174 Z m 1.526688,0.76334 h 93.127988 v 0.76334 H 37.403862 Z m 0.763345,0.76334 h 92.364643 v 0.76335 H 38.167207 Z m 1.526688,0.76335 H 129.7685 v 0.76334 H 39.693895 Z m 0.763344,0.76334 h 88.547921 v 0.76335 H 40.457239 Z m 1.526688,0.76335 H 129.00516 V 377.092 H 41.983927 Z m 0.763344,0.76334 h 85.494539 v 0.76335 H 42.747271 Z m 1.526689,0.76335 h 83.20451 v 0.76334 H 44.27396 Z m 0.763344,0.76334 h 81.677826 v 0.76334 H 45.037304 Z m 0.763344,0.76334 h 80.914482 v 0.76335 H 45.800648 Z m 1.526688,0.76335 h 78.624444 v 0.76334 H 47.327336 Z m 0.763344,0.76334 h 77.09776 v 0.76335 H 48.09068 Z m 1.526689,0.76335 h 75.571071 v 0.76334 H 49.617369 Z m 0.763344,0.76334 h 74.044377 v 0.76334 H 50.380713 Z m 1.526688,0.76334 h 71.754349 v 0.76335 H 51.907401 Z m 0.763344,0.76335 h 70.991005 v 0.76334 H 52.670745 Z m 1.526688,0.76334 h 68.700977 v 0.76335 H 54.197433 Z m 0.763345,0.76335 h 67.174282 v 0.76334 H 54.960778 Z m 0.763344,0.76334 h 65.647598 v 0.76334 H 55.724122 Z m 1.526688,0.76334 h 64.12091 v 0.76335 H 57.25081 Z m 0.763344,0.76335 h 62.594216 v 0.76334 H 58.014154 Z m 1.526688,0.76334 h 60.304188 v 0.76335 H 59.540842 Z m 0.763344,0.76335 h 59.540844 v 0.76334 H 60.304186 Z m 1.526689,0.76334 h 57.250805 v 0.76335 H 61.830875 Z m 0.763344,0.76335 h 55.724121 v 0.76334 H 62.594219 Z m 1.526688,0.76334 h 54.197433 v 0.76334 H 64.120907 Z m 0.763344,0.76334 H 117.555 v 0.76335 H 64.884251 Z m 1.526688,0.76335 h 50.380711 v 0.76334 H 66.410939 Z m 0.763345,0.76334 h 48.854026 v 0.76335 H 67.174284 Z m 0.763344,0.76335 h 48.090682 v 0.76334 H 67.937628 Z m 1.526688,0.76334 h 45.800644 v 0.76334 H 69.464316 Z m 0.763344,0.76334 h 44.27396 v 0.76335 H 70.22766 Z m 1.526688,0.76335 h 42.747272 v 0.76334 H 71.754348 Z m 0.763345,0.76334 h 41.220587 v 0.76335 H 72.517693 Z m 1.526688,0.76335 h 38.930549 v 0.76334 H 74.044381 Z m 0.763344,0.76334 h 38.167205 v 0.76335 H 74.807725 Z m 1.526688,0.76335 h 35.877177 v 0.76334 H 76.334413 Z m 0.763344,0.76334 h 34.350483 v 0.76334 H 77.097757 Z m 0.763344,0.76334 H 110.6849 v 0.76335 H 77.861101 Z m 1.526689,0.76335 h 31.29711 v 0.76334 H 79.38779 Z m 0.763344,0.76334 h 29.770426 v 0.76335 H 80.151134 Z m 1.526688,0.76335 h 27.480388 v 0.76334 H 81.677822 Z m 0.763344,0.76334 h 26.717044 v 0.76334 H 82.441166 Z m 1.526689,0.76334 h 24.427015 v 0.76335 H 83.967855 Z m 0.763344,0.76335 h 22.900321 v 0.76334 H 84.731199 Z m 1.526688,0.76334 h 21.373633 v 0.76335 H 86.257887 Z m 0.763344,0.76335 h 19.846949 v 0.76334 H 87.021231 Z m 1.526688,0.76334 h 17.556911 v 0.76334 H 88.547919 Z m 0.763344,0.76334 h 16.030227 v 0.76335 H 89.311263 Z m 0.763345,0.76335 h 15.266882 v 0.76334 H 90.074608 Z m 1.526688,0.76334 h 12.976854 v 0.76335 H 91.601296 Z m 0.763344,0.76335 h 11.45016 v 0.76334 H 92.36464 Z m 1.526688,0.76334 h 9.923472 v 0.76335 h -9.923472 z m 0.763344,0.76335 h 8.396788 v 0.76334 h -8.396788 z m 1.526689,0.76334 h 6.106749 v 0.76334 h -6.106749 z m 0.763344,0.76334 h 5.343405 v 0.76335 h -5.343405 z m 1.526688,0.76335 h 3.053377 v 0.76334 h -3.053377 z m 0.763344,0.76334 h 1.526693 v 0.76335 h -1.526693 z"
         id="path2" />
    </clipPath>
    <clipPath
       clipPathUnits="userSpaceOnUse"
       id="clipEmfPath3">
      <path
         d="m 354.19168,186.25597 h 16.03022 v 0.76334 h -16.03022 z m 0,0.76334 h 32.06045 v 0.76335 h -32.06045 z m 0,0.76335 h 47.32733 v 0.76334 h -47.32733 z m 0,0.76334 h 63.35756 v 0.76334 h -63.35756 z m 0,0.76334 h 78.62444 v 12.21351 h -78.62444 z m -0.76335,12.21351 h 79.38779 v 3.81672 h -79.38779 z m 0,3.81672 h 78.62445 v 12.21351 h -78.62445 z m -0.76334,12.21351 h 79.38779 v 3.81672 h -79.38779 z m 0,3.81672 h 78.62444 v 11.45016 h -78.62444 z m -0.76335,11.45016 h 79.38779 v 3.81672 h -79.38779 z m 0,3.81672 h 78.62445 v 12.21351 h -78.62445 z m -0.76334,12.21351 h 79.38779 v 3.81672 H 351.1383 Z m 0,3.81672 h 78.62445 v 11.45016 H 351.1383 Z m -0.76334,11.45016 h 79.38779 v 0.76334 h -79.38779 z m 16.03022,0.76334 h 63.35757 v 0.76335 h -63.35757 z m 16.03023,0.76335 h 47.32734 v 0.76334 h -47.32734 z m 15.26688,0.76334 h 32.06046 v 0.76335 h -32.06046 z m 16.03023,0.76335 h 16.03023 v 0.76334 h -16.03023 z"
         id="path3" />
    </clipPath>
    <pattern
       id="EMFhbasepattern"
       patternUnits="userSpaceOnUse"
       width="6"
       height="6"
       x="0"
       y="0" />
    <clipPath
       clipPathUnits="userSpaceOnUse"
       id="clipEmfPath1-0">
      <path
         d="m 136.6386,-6.1067531 h 2.29003 v 0.7633442 h -2.29003 z m -1.52669,0.7633442 h 3.81672 v 0.7633441 h -3.81672 z m -1.52669,0.7633441 h 6.10676 v 0.7633441 h -6.10676 z m -2.29003,0.7633441 h 8.39679 v 0.7633442 h -8.39679 z m -1.52669,0.7633442 h 10.68682 v 0.7633441 H 129.7685 Z m -1.52669,0.7633441 h 12.21351 v 0.7633441 h -12.21351 z m -1.52668,0.7633441 h 14.50353 v 0.76334417 h -14.50353 z m -2.29004,0.76334417 h 16.79357 V 0 H 124.42509 Z M 122.89841,0 h 18.32025 v 0.76334413 h -18.32025 z m -1.52669,0.76334413 h 20.61029 V 1.5266883 h -20.61029 z m -1.52669,0.76334417 h 22.13698 V 2.2900324 H 119.84503 Z M 117.555,2.2900324 h 25.19035 V 3.0533765 H 117.555 Z m -1.52669,0.7633441 h 26.71704 v 0.7633442 h -26.71704 z m -1.52669,0.7633442 h 29.00708 v 0.7633441 h -29.00708 z m -1.52669,0.7633441 h 30.53377 v 0.7633441 h -30.53377 z m -2.29003,0.7633441 h 33.58714 V 6.1067531 H 110.6849 Z m -1.52669,0.7633442 h 35.11383 v 0.7633441 h -35.11383 z m -1.52669,0.7633441 h 36.64052 v 0.7633441 h -36.64052 z m -2.29003,0.7633441 h 39.6939 v 0.7633442 h -39.6939 z m -1.52669,0.7633442 h 41.22059 V 9.1601296 H 103.8148 Z m -1.52669,0.7633441 h 43.51062 v 0.7633441 h -43.51062 z m -1.52668,0.7633441 h 45.0373 v 0.7633443 h -45.0373 z m -2.290037,0.7633443 h 48.090677 v 0.763344 H 98.471393 Z m -1.526688,0.763344 h 49.617365 v 0.763344 H 96.944705 Z m -1.526688,0.763344 H 147.32542 V 12.97685 H 95.418017 Z m -1.526689,0.763344 h 53.434092 v 0.763344 H 93.891328 Z m -2.290032,0.763344 h 55.724124 v 0.763345 H 91.601296 Z m -1.526688,0.763345 h 58.014152 v 0.763344 H 90.074608 Z m -1.526689,0.763344 h 59.540841 v 0.763344 H 88.547919 Z m -1.526688,0.763344 h 61.830879 v 0.763344 H 87.021231 Z m -2.290032,0.763344 h 64.120911 v 0.763344 H 84.731199 Z m -1.526689,0.763344 h 66.41094 v 0.763344 H 83.20451 Z m -1.526688,0.763344 h 67.937628 v 0.763344 H 81.677822 Z m -1.526688,0.763344 h 70.227656 v 0.763344 H 80.151134 Z m -2.290033,0.763344 h 72.517689 v 0.763345 H 77.861101 Z m -1.526688,0.763345 h 74.044377 v 0.763344 H 76.334413 Z m -1.526688,0.763344 H 151.14214 V 22.13698 H 74.807725 Z m -2.290032,0.763344 h 78.624447 v 0.763344 H 72.517693 Z m 0.763344,0.763344 h 78.624443 v 1.526688 H 73.281037 Z m 0.763344,1.526688 H 152.66883 V 25.9537 H 74.044381 Z m 0.763344,1.526688 h 77.861105 v 0.763345 H 74.807725 Z m 0,0.763345 h 78.624445 v 0.763344 H 74.807725 Z m 0.763344,0.763344 h 77.861101 v 0.763344 H 75.571069 Z m 0,0.763344 h 78.624441 v 1.526688 H 75.571069 Z m 0.763344,1.526688 h 78.624447 v 1.526688 H 76.334413 Z m 0.763344,1.526688 H 155.7222 v 1.526689 H 77.097757 Z m 0.763344,1.526689 H 155.7222 v 0.763344 H 77.861101 Z m 0,0.763344 h 78.624449 v 0.763344 H 77.861101 Z m 0.763345,0.763344 H 156.48555 V 35.11383 H 78.624446 Z m 0,0.763344 h 78.624444 v 1.526688 H 78.624446 Z m 0.763344,1.526688 h 78.62445 v 1.526689 H 79.38779 Z m 0.763344,1.526689 h 78.624446 v 1.526688 H 80.151134 Z m 0.763344,1.526688 h 77.861102 v 0.763344 H 80.914478 Z m 0,0.763344 h 78.624442 v 0.763344 H 80.914478 Z m 0.763344,0.763344 h 77.861098 v 0.763344 H 81.677822 Z m 0,0.763344 h 78.624448 v 1.526689 H 81.677822 Z m 0.763344,1.526689 h 78.624444 v 1.526688 H 82.441166 Z m 0.763344,1.526688 h 78.62445 v 1.526688 H 83.20451 Z m 0.763345,1.526688 h 77.861105 v 0.763344 H 83.967855 Z m 0,0.763344 H 162.5923 V 48.09068 H 83.967855 Z m 0.763344,0.763344 H 162.5923 v 0.763344 H 84.731199 Z m 0,0.763344 h 78.624441 v 1.526689 H 84.731199 Z m 0.763344,1.526689 h 78.624447 v 1.526688 H 85.494543 Z m 0.763344,1.526688 h 78.624443 v 1.526688 H 86.257887 Z m 0.763344,1.526688 h 77.861099 v 0.763344 H 87.021231 Z m 0,0.763344 h 78.624449 v 1.526689 H 87.021231 Z m 0.763344,1.526689 H 166.40902 V 57.25081 H 87.784575 Z m 0.763344,1.526688 h 78.624441 v 1.526688 H 88.547919 Z m 0.763344,1.526688 h 77.861097 v 0.763344 H 89.311263 Z m 0,0.763344 h 76.334417 v 0.763344 H 89.311263 Z m 0.763345,0.763344 h 74.044382 v 0.763345 H 90.074608 Z m 0,0.763345 H 162.5923 v 0.763344 H 90.074608 Z m 0,0.763344 h 70.227662 v 0.763344 H 90.074608 Z m 0.763344,0.763344 h 67.937628 v 0.763344 H 90.837952 Z m 0,0.763344 h 66.410938 v 0.763344 H 90.837952 Z m 0.763344,0.763344 H 155.7222 v 0.763344 H 91.601296 Z m 0,0.763344 h 61.830874 v 0.763344 H 91.601296 Z m 0.763344,0.763344 h 59.54084 v 0.763344 H 92.36464 Z m 0,0.763344 h 58.01415 v 0.763345 H 92.36464 Z m 0.763344,0.763345 h 55.724126 v 0.763344 H 93.127984 Z m 0,0.763344 h 53.434086 v 0.763344 H 93.127984 Z m 0,0.763344 h 51.907406 v 0.763344 H 93.127984 Z m 0.763344,0.763344 H 143.5087 V 70.22766 H 93.891328 Z m 0,0.763344 h 48.090682 v 0.763344 H 93.891328 Z m 0.763344,0.763344 h 45.037308 v 0.763344 H 94.654672 Z m 0,0.763344 h 43.510618 v 0.763345 H 94.654672 Z m 0.763345,0.763345 H 136.6386 v 0.763344 H 95.418017 Z m 0,0.763344 h 38.930553 v 0.763344 H 95.418017 Z m 0.763344,0.763344 h 36.640519 v 0.763344 H 96.181361 Z m 0,0.763344 h 35.113829 v 0.763344 H 96.181361 Z m 0,0.763344 H 129.7685 v 0.763344 H 96.181361 Z m 0.763344,0.763344 h 30.533765 v 0.763344 H 96.944705 Z m 0,0.763344 h 29.007075 v 0.763344 H 96.944705 Z m 0.763344,0.763344 h 26.717041 v 0.763345 H 97.708049 Z m 0,0.763345 H 122.89841 V 79.38779 H 97.708049 Z m 0.763344,0.763344 h 22.136977 v 0.763344 H 98.471393 Z m 0,0.763344 h 20.610287 v 0.763344 H 98.471393 Z m 0.763344,0.763344 H 117.555 v 0.763344 H 99.234737 Z m 0,0.763344 h 16.793573 v 0.763344 H 99.234737 Z m 0,0.763344 H 113.73828 V 83.20451 H 99.234737 Z m 0.763344,0.763344 h 12.213509 v 0.763345 H 99.998081 Z m 0,0.763345 H 110.6849 v 0.763344 H 99.998081 Z m 0.763349,0.763344 h 8.39678 v 0.763344 h -8.39678 z m 0,0.763344 h 6.10675 v 0.763344 h -6.10675 z m 0.76334,0.763344 h 3.81672 v 0.763344 h -3.81672 z m 0,0.763344 h 2.29003 v 0.763344 h -2.29003 z"
         id="path1-9" />
    </clipPath>
    <clipPath
       clipPathUnits="userSpaceOnUse"
       id="clipEmfPath2-4">
      <path
         d="m 359.53509,175.56915 h 14.50353 v 0.76334 h -14.50353 z m 0,0.76334 h 29.00707 v 0.76335 h -29.00707 z m 0,0.76335 h 43.51061 v 0.76334 h -43.51061 z m 0,0.76334 h 58.01415 v 0.76335 h -58.01415 z m 0,0.76335 h 72.51769 v 10.68681 h -72.51769 z m -0.76335,10.68681 h 73.28104 v 3.81673 h -73.28104 z m 0,3.81673 h 72.51769 v 10.68681 h -72.51769 z m -0.76334,10.68681 h 73.28103 v 3.81672 H 358.0084 Z m 0,3.81672 h 72.51769 v 10.68682 H 358.0084 Z m -0.76335,10.68682 h 73.28104 v 3.81672 h -73.28104 z m 0,3.81672 h 72.5177 v 10.68682 h -72.5177 z m -0.76334,10.68682 h 73.28104 v 3.81672 h -73.28104 z m 0,3.81672 h 72.51769 v 9.92347 h -72.51769 z m -0.76334,9.92347 h 73.28103 v 0.76335 h -73.28103 z m 14.50353,0.76335 h 58.7775 v 0.76334 h -58.7775 z m 14.50354,0.76334 h 44.27396 v 0.76335 h -44.27396 z m 14.50354,0.76335 h 29.77042 v 0.76334 h -29.77042 z m 14.50354,0.76334 h 15.26688 v 0.76335 h -15.26688 z"
         id="path2-8" />
    </clipPath>
    <clipPath
       clipPathUnits="userSpaceOnUse"
       id="clipEmfPath3-8">
      <path
         d="m 83.20451,309.91772 h 1.526689 v 0.76334 H 83.20451 Z m -0.763344,0.76334 h 3.053377 v 0.76335 h -3.053377 z m -0.763344,0.76335 h 5.343409 v 0.76334 h -5.343409 z m 0,0.76334 h 6.106753 v 0.76334 h -6.106753 z m -0.763344,0.76334 h 8.396785 v 0.76335 h -8.396785 z m -0.763344,0.76335 h 9.923474 v 0.76334 h -9.923474 z m 0,0.76334 h 11.450162 v 0.76335 H 80.151134 Z m -0.763344,0.76335 h 12.97685 v 0.76334 H 79.38779 Z m -0.763344,0.76334 h 15.266882 v 0.76334 H 78.624446 Z m 0,0.76334 h 16.030226 v 0.76335 H 78.624446 Z m -0.763345,0.76335 h 18.32026 v 0.76334 h -18.32026 z m -0.763344,0.76334 h 19.846948 v 0.76335 H 77.097757 Z m 0,0.76335 h 21.373636 v 0.76334 H 77.097757 Z m -0.763344,0.76334 h 22.900324 v 0.76335 H 76.334413 Z m -0.763344,0.76335 h 25.190361 v 0.76334 H 75.571069 Z m 0,0.76334 h 25.953701 v 0.76334 H 75.571069 Z m -0.763344,0.76334 h 28.243735 v 0.76335 H 74.807725 Z m -0.763344,0.76335 H 103.8148 v 0.76334 H 74.044381 Z m 0,0.76334 h 30.533769 v 0.76335 H 74.044381 Z m -0.763344,0.76335 h 32.823793 v 0.76334 H 73.281037 Z m -0.763344,0.76334 h 34.350487 v 0.76334 H 72.517693 Z m 0,0.76334 h 35.877177 v 0.76335 H 72.517693 Z m -0.763345,0.76335 h 37.403862 v 0.76334 H 71.754348 Z m -0.763344,0.76334 H 110.6849 v 0.76335 H 70.991004 Z m 0,0.76335 h 40.457236 v 0.76334 H 70.991004 Z m -0.763344,0.76334 h 42.74727 v 0.76335 H 70.22766 Z m -0.763344,0.76335 h 44.273964 v 0.76334 H 69.464316 Z m -0.763344,0.76334 h 46.563988 v 0.76334 H 68.700972 Z m 0,0.76334 h 47.327338 v 0.76335 H 68.700972 Z m -0.763344,0.76335 H 117.555 v 0.76334 H 67.937628 Z m -0.763344,0.76334 h 51.144056 v 0.76335 H 67.174284 Z m 0,0.76335 h 52.670746 v 0.76334 H 67.174284 Z m -0.763345,0.76334 h 54.197431 v 0.76334 H 66.410939 Z m -0.763344,0.76334 h 56.487465 v 0.76335 H 65.647595 Z m 0,0.76335 h 57.250815 v 0.76334 H 65.647595 Z m -0.763344,0.76334 h 59.540839 v 0.76335 H 64.884251 Z m -0.763344,0.76335 h 61.067533 v 0.76334 H 64.120907 Z m 0,0.76334 h 61.830873 v 0.76334 H 64.120907 Z m -0.763344,0.76334 h 64.120907 v 0.76335 H 63.357563 Z m -0.763344,0.76335 h 65.647591 v 0.76334 H 62.594219 Z m 0,0.76334 H 129.7685 v 0.76335 H 62.594219 Z m -0.763344,0.76335 h 68.700975 v 0.76334 H 61.830875 Z m -0.763344,0.76334 h 70.990999 v 0.76335 H 61.067531 Z m 0,0.76335 h 71.754349 v 0.76334 H 61.067531 Z m -0.763345,0.76334 h 74.044384 v 0.76334 H 60.304186 Z m -0.763344,0.76334 h 75.571068 v 0.76335 H 59.540842 Z m 0,0.76335 H 136.6386 v 0.76334 H 59.540842 Z m -0.763344,0.76334 h 78.624442 v 0.76335 H 58.777498 Z m -0.763344,0.76335 h 80.914476 v 0.76334 H 58.014154 Z m 0,0.76334 h 81.677826 v 0.76334 H 58.014154 Z m -0.763344,0.76334 h 83.96785 v 0.76335 H 57.25081 Z m -0.763344,0.76335 h 85.494544 v 0.76334 H 56.487466 Z m 0,0.76334 H 143.5087 v 0.76335 H 56.487466 Z m -0.763344,0.76335 h 88.547918 v 0.76334 H 55.724122 Z m -0.763344,0.76334 h 90.837952 v 0.76334 H 54.960778 Z m -0.763345,0.76334 h 92.364637 v 0.76335 H 54.197433 Z m 0,0.76335 h 93.127987 v 0.76334 H 54.197433 Z m -0.763344,0.76334 h 93.891331 v 0.76335 H 53.434089 Z m -0.763344,0.76335 h 93.891325 v 0.76334 H 52.670745 Z m 0,0.76334 h 93.127985 v 0.76335 H 52.670745 Z m -0.763344,0.76335 h 93.891329 v 0.76334 H 51.907401 Z m -0.763344,0.76334 h 93.891333 v 0.76334 H 51.144057 Z m 0,0.76334 h 93.127983 v 0.76335 H 51.144057 Z m -0.763344,0.76335 h 93.891327 v 0.76334 H 50.380713 Z m -0.763344,0.76334 H 143.5087 v 0.76335 H 49.617369 Z m 0,0.76335 h 93.127981 v 0.76334 H 49.617369 Z m -0.763345,0.76334 h 93.891326 v 0.76334 H 48.854024 Z m -0.763344,0.76334 h 93.89133 v 0.76335 H 48.09068 Z m 0,0.76335 h 93.12798 v 0.76334 H 48.09068 Z m -0.763344,0.76334 h 93.891324 v 0.76335 H 47.327336 Z m -0.763344,0.76335 h 93.891328 v 0.76334 H 46.563992 Z m 0,0.76334 h 93.127988 v 0.76335 H 46.563992 Z m -0.763344,0.76335 h 93.891332 v 0.76334 H 45.800648 Z m -0.763344,0.76334 h 93.891326 v 0.76334 H 45.037304 Z m 0,0.76334 h 93.127986 v 0.76335 H 45.037304 Z m -0.763344,0.76335 h 93.89133 v 0.76334 H 44.27396 Z m -0.763344,0.76334 h 93.891324 v 0.76335 H 43.510616 Z m 0,0.76335 H 136.6386 v 0.76334 H 43.510616 Z m -0.763345,0.76334 H 136.6386 v 0.76334 H 42.747271 Z m -0.763344,0.76334 h 93.891333 v 0.76335 H 41.983927 Z m 0,0.76335 h 93.127983 v 0.76334 H 41.983927 Z m -0.763344,0.76334 h 93.891327 v 0.76335 H 41.220583 Z m -0.763344,0.76335 h 93.891331 v 0.76334 H 40.457239 Z m -0.763344,0.76334 h 93.891325 v 0.76334 H 39.693895 Z m 1.526688,0.76334 h 91.601297 v 0.76335 H 41.220583 Z m 0.763344,0.76335 h 90.837953 v 0.76334 H 41.983927 Z m 1.526689,0.76334 h 88.547914 v 0.76335 H 43.510616 Z m 0.763344,0.76335 h 87.02123 V 377.092 H 44.27396 Z m 1.526688,0.76334 h 85.494542 v 0.76335 H 45.800648 Z m 0.763344,0.76335 h 83.967858 v 0.76334 H 46.563992 Z m 1.526688,0.76334 h 81.67782 v 0.76334 H 48.09068 Z m 0.763344,0.76334 H 129.7685 v 0.76335 H 48.854024 Z m 1.526689,0.76335 h 78.624447 v 0.76334 H 50.380713 Z m 0.763344,0.76334 h 77.097753 v 0.76335 H 51.144057 Z m 1.526688,0.76335 h 75.571065 v 0.76334 H 52.670745 Z m 0.763344,0.76334 h 74.044381 v 0.76334 H 53.434089 Z m 1.526689,0.76334 h 71.754352 v 0.76335 H 54.960778 Z m 0.763344,0.76335 h 70.991008 v 0.76334 H 55.724122 Z m 1.526688,0.76334 h 68.70097 v 0.76335 H 57.25081 Z m 0.763344,0.76335 h 67.174286 v 0.76334 H 58.014154 Z m 1.526688,0.76334 h 65.647598 v 0.76334 H 59.540842 Z m 0.763344,0.76334 h 64.120904 v 0.76335 H 60.304186 Z m 0.763345,0.76335 h 62.594219 v 0.76334 H 61.067531 Z m 1.526688,0.76334 h 61.067531 v 0.76335 H 62.594219 Z m 0.763344,0.76335 h 59.540847 v 0.76334 H 63.357563 Z m 1.526688,0.76334 h 57.250809 v 0.76335 H 64.884251 Z m 0.763344,0.76335 h 56.487465 v 0.76334 H 65.647595 Z m 1.526689,0.76334 h 54.197436 v 0.76334 H 67.174284 Z m 0.763344,0.76334 h 52.670742 v 0.76335 H 67.937628 Z m 1.526688,0.76335 h 51.144054 v 0.76334 H 69.464316 Z m 0.763344,0.76334 h 49.61737 v 0.76335 H 70.22766 Z m 1.526688,0.76335 h 47.327332 v 0.76334 H 71.754348 Z m 0.763345,0.76334 h 45.800647 v 0.76334 H 72.517693 Z m 1.526688,0.76334 h 44.273959 v 0.76335 H 74.044381 Z m 0.763344,0.76335 H 117.555 v 0.76334 H 74.807725 Z m 1.526688,0.76334 h 40.457237 v 0.76335 H 76.334413 Z m 0.763344,0.76335 h 39.693893 v 0.76334 H 77.097757 Z m 1.526689,0.76334 h 37.403864 v 0.76335 H 78.624446 Z m 0.763344,0.76335 h 35.87717 v 0.76334 H 79.38779 Z m 1.526688,0.76334 h 34.350482 v 0.76334 H 80.914478 Z m 0.763344,0.76334 h 32.823798 v 0.76335 H 81.677822 Z m 0.763344,0.76335 h 31.297114 v 0.76334 H 82.441166 Z m 1.526689,0.76334 h 29.770425 v 0.76335 H 83.967855 Z m 0.763344,0.76335 h 28.243731 v 0.76334 H 84.731199 Z m 1.526688,0.76334 h 25.953703 v 0.76334 H 86.257887 Z m 0.763344,0.76334 h 25.190359 v 0.76335 H 87.021231 Z m 1.526688,0.76335 h 22.900321 v 0.76334 H 88.547919 Z m 0.763344,0.76334 H 110.6849 v 0.76335 H 89.311263 Z m 1.526689,0.76335 H 110.6849 v 0.76334 H 90.837952 Z m 0.763344,0.76334 h 18.320264 v 0.76334 H 91.601296 Z m 1.526688,0.76334 h 16.030226 v 0.76335 H 93.127984 Z m 0.763344,0.76335 h 15.266882 v 0.76334 H 93.891328 Z m 1.526689,0.76334 h 12.976853 v 0.76335 H 95.418017 Z m 0.763344,0.76335 h 11.450159 v 0.76334 H 96.181361 Z m 1.526688,0.76334 h 9.923471 v 0.76335 h -9.923471 z m 0.763344,0.76335 h 8.396787 v 0.76334 h -8.396787 z m 1.526688,0.76334 h 6.106749 v 0.76334 h -6.106749 z m 0.763349,0.76334 h 5.3434 v 0.76335 h -5.3434 z m 1.52668,0.76335 h 3.05338 v 0.76334 h -3.05338 z m 0.76335,0.76334 h 1.52669 v 0.76335 h -1.52669 z"
         id="path3-2" />
    </clipPath>
    <pattern
       id="EMFhbasepattern-4"
       patternUnits="userSpaceOnUse"
       width="6"
       height="6"
       x="0"
       y="0" />
  </defs>
  <g
     inkscape:label="Layer 1"
     inkscape:groupmode="layer"
     id="layer1"
     transform="translate(-1.1091286,2.8907926)">
    <g
       id="g1"
       transform="translate(-71.9667,-70.395353)">
      <g
         id="g10"
         transform="translate(0,2.1166667)">
        <path
           style="fill:#000000;fill-opacity:1;fill-rule:evenodd;stroke:none"
           clip-path="url(#clipEmfPath1-0)"
           d="m 147.32542,31.583363 c -0.0954,1.049599 -0.47709,2.051488 -1.09731,2.91025 l -29.91355,40.791202 c -1.90836,2.623995 -5.58195,3.148795 -8.20595,1.240434 -0.81105,-0.572508 -1.47898,-1.383561 -1.90836,-2.337741 L 85.780797,28.339151 c -1.288143,-2.957959 0.04771,-6.440716 3.005667,-7.776568 0.906472,-0.381673 1.95607,-0.572509 2.957959,-0.477091 l 50.333007,5.057155 c 3.24421,0.333963 5.58195,3.244213 5.24799,6.440716 z"
           id="path5"
           transform="matrix(0.23757043,0,0,0.23757043,79.779831,68.800861)" />
        <path
           style="fill:#000000;fill-opacity:1;fill-rule:evenodd;stroke:none"
           clip-path="url(#clipEmfPath2-4)"
           d="m 385.35322,240.73966 c -0.90647,-0.57251 -1.62211,-1.38357 -2.0992,-2.33775 l -22.7572,-45.18043 c -1.43127,-2.86254 -0.28625,-6.393 2.624,-7.87198 0.90647,-0.42938 1.90836,-0.66793 2.95796,-0.62022 l 50.09446,2.624 c 3.24421,0.19083 5.72508,2.95795 5.58195,6.20217 -0.0477,1.00189 -0.38167,2.00377 -0.95418,2.86254 l -27.33726,42.55643 c -1.76524,2.71942 -5.39112,3.48276 -8.11053,1.76524 z"
           id="path7"
           transform="matrix(0.23757043,0,0,0.23757043,79.779831,68.800861)"
           sodipodi:nodetypes="sccccccccs" />
        <path
           style="fill:#000000;fill-opacity:1;fill-rule:evenodd;stroke:none"
           clip-path="url(#clipEmfPath3-8)"
           d="m 65.702861,342.83693 c 1.001889,-0.47709 2.146905,-0.71563 3.291922,-0.62021 l 54.435977,4.05526 c 3.48276,0.23855 6.10675,3.29192 5.8205,6.77468 -0.0477,1.09731 -0.42938,2.14691 -1.0496,3.10109 l -30.29522,44.89417 c -1.956068,2.91025 -5.868206,3.6736 -8.778456,1.71753 -0.906471,-0.62022 -1.669815,-1.47898 -2.146905,-2.48087 L 62.840321,351.32914 c -1.574398,-3.1488 -0.286254,-6.91781 2.86254,-8.49221 z"
           id="path9"
           transform="matrix(0.23757043,0,0,0.23757043,79.779831,71.975863)"
           sodipodi:nodetypes="cccccccccc" />
        <path
           style="fill:#000000;fill-opacity:1;fill-rule:nonzero;stroke:none;stroke-width:0.23757"
           d="m 111.88977,79.432387 -0.69138,0.249353 0.034,-0.01133 -0.68006,0.249353 0.0226,-0.01133 -0.66872,0.260687 0.034,-0.01133 -0.65739,0.260688 0.0226,-0.01133 -0.64605,0.272021 0.0226,-0.01133 -0.63472,0.272022 0.034,-0.01133 -0.63472,0.283356 0.034,-0.01133 -0.62338,0.283356 0.034,-0.01133 -0.61205,0.283357 0.034,-0.01133 -0.60072,0.29469 0.034,-0.01133 -0.58937,0.294691 0.034,-0.01133 -0.57805,0.306025 0.0227,-0.01133 -0.56672,0.306025 0.034,-0.01133 -0.55538,0.306026 0.0227,-0.01133 -0.54404,0.317359 0.0227,-0.02267 -0.53271,0.328693 0.0227,-0.02267 -0.52138,0.328693 0.0227,-0.01133 -0.52138,0.328694 0.034,-0.02267 -0.51004,0.340027 0.0227,-0.02267 -0.4987,0.340027 0.034,-0.01133 -0.49871,0.340027 0.034,-0.02267 -0.487377,0.351362 0.0227,-0.02267 -0.464703,0.351363 0.02267,-0.02267 -0.464704,0.362695 0.02267,-0.02267 -0.45337,0.351362 0.034,-0.01133 -0.453371,0.362697 0.034,-0.02267 -0.442036,0.362696 0.02267,-0.02267 -0.430701,0.362695 0.034,-0.02267 -0.430701,0.37403 0.034,-0.02267 -0.419368,0.374031 0.02267,-0.02267 -0.396699,0.385364 0.02267,-0.02267 -0.396698,0.37403 0.02267,-0.02267 -0.385365,0.385364 0.02267,-0.02267 -0.37403,0.385365 0.02267,-0.02267 -0.37403,0.385365 0.02267,-0.02267 -0.362696,0.385365 0.02267,-0.02267 -0.351362,0.396698 0.02267,-0.02267 -0.351362,0.396699 0.02267,-0.02267 -0.340027,0.396699 0.02267,-0.034 -0.328693,0.408033 0.01133,-0.02267 -0.31736,0.396699 0.02267,-0.02267 -0.317359,0.408032 0.01133,-0.034 -0.306025,0.408032 0.02267,-0.02267 -0.306024,0.408035 0.02267,-0.034 -0.29469,0.419366 0.02267,-0.034 -0.294691,0.419366 0.02267,-0.034 -0.283356,0.419366 0.02267,-0.034 -0.283356,0.419366 0.02267,-0.02267 -0.260688,0.408035 0.01133,-0.0227 -0.260688,0.419367 0.02267,-0.0227 -0.260688,0.408037 0.02267,-0.0227 -0.249354,0.41936 0.01133,-0.0227 -0.238019,0.419367 0.02267,-0.034 -0.238019,0.430707 0.01133,-0.034 -0.226684,0.430697 0.02267,-0.034 -0.226685,0.4307 0.01133,-0.034 -0.204017,0.430697 0.01133,-0.034 -0.204017,0.430697 0.01133,-0.034 -0.204017,0.430697 0.01133,-0.034 -0.192682,0.43071 0.01133,-0.0227 -0.192682,0.419357 0.01133,-0.0226 -0.181348,0.41938 0.01133,-0.0226 -0.170014,0.41937 0.01133,-0.0226 -0.181348,0.4307 0.01133,-0.034 -0.158679,0.4307 0.01133,-0.0226 -0.158679,0.41937 v -0.0226 l -0.147345,0.41937 0.01133,-0.0226 -0.147345,0.41937 v -0.0226 l -0.136011,0.43071 0.01133,-0.034 -0.147345,0.4307 0.01133,-0.034 -0.136011,0.4307 0.01133,-0.0226 -0.124678,0.41938 0.01133,-0.0226 -0.124677,0.41937 v -0.034 l -0.113342,0.41936 0.01133,-0.0226 -0.113342,0.41936 v -0.0226 l -0.102008,0.41936 v -0.0226 l -0.102008,0.41937 0.01133,-0.034 -0.102008,0.41937 0.01133,-0.0226 -0.09067,0.40803 v -0.0226 l -0.09067,0.41936 0.01133,-0.0226 -0.09067,0.40802 0.01133,-0.0226 -0.07934,0.40804 v -0.0226 l -0.06801,0.40804 v -0.0226 l -0.06801,0.3967 v -0.0113 l -0.06801,0.39669 v -0.0226 l -0.05667,0.39671 v -0.0113 l -0.05667,0.3967 v -0.0226 l -0.04533,0.3967 v -0.0227 l -0.05667,0.39669 0.01133,-0.0226 -0.04533,0.38537 v -0.0226 l -0.04533,0.3967 v -0.0226 l -0.034,0.38537 v -0.0226 l -0.034,0.38537 v -0.0226 l -0.034,0.38537 v -0.0226 l -0.02267,0.37402 v -0.0226 l -0.02267,0.37404 v -0.0113 l -0.02267,0.3627 v -0.0113 l -0.02267,0.3627 v -0.0226 l -0.01133,0.36269 v -0.0113 l -0.01133,0.3627 v -0.0226 l -0.01133,0.35136 v -0.0113 0.35136 -0.0226 l -0.01133,0.35136 v -0.0113 0.34003 -0.0113 0.34003 -0.0226 l 0.01133,0.34003 v -0.0226 0.34003 -0.0226 l 0.01133,0.32869 v -0.0113 l 0.01133,0.32869 v -0.0226 l 0.01133,0.31736 v -0.0227 l 0.034,0.63472 v -0.034 l 0.034,0.61205 v -0.0453 l 0.04534,0.60072 v -0.034 l 0.05667,0.56671 v -0.034 l 0.05667,0.55538 v -0.0453 l 0.06801,0.53271 -0.01133,-0.034 0.07934,0.51003 -0.01133,-0.034 0.07934,0.47604 v -0.034 l 0.07934,0.4647 v 0 l 0.02267,0.17002 0.01133,0.15868 v 0.17001 l -0.01133,0.17002 -0.02267,0.17001 -0.034,0.17001 -0.05668,0.15868 -0.05667,0.15868 -0.06801,0.14735 -0.07934,0.15867 -0.09067,0.13602 -0.09067,0.13601 -0.113342,0.13601 -0.113343,0.11334 -0.124677,0.11334 -0.136011,0.10201 -0.147345,0.10201 -0.136011,0.0794 -0.158679,0.0794 -0.15868,0.0567 -0.158679,0.0567 -0.15868,0.034 -0.170014,0.034 -0.170014,0.0226 h -0.170156 -0.170013 l -0.15868,-0.0225 -0.170013,-0.034 -0.158681,-0.034 -0.170013,-0.0567 -0.147345,-0.0567 -0.15868,-0.0794 -0.147345,-0.0794 -0.136011,-0.10201 -0.136011,-0.102 -0.124676,-0.11334 -0.113343,-0.12468 -0.113343,-0.12468 -0.09067,-0.13601 -0.09067,-0.14735 -0.07934,-0.14734 -0.06801,-0.15868 -0.05667,-0.15868 -0.04533,-0.15868 -0.04534,-0.15868 v 0 l -0.07934,-0.48737 -0.07934,-0.52138 -0.07934,-0.54404 -0.07934,-0.56671 -0.05668,-0.58938 -0.06801,-0.61205 -0.04533,-0.62339 -0.04534,-0.64605 -0.034,-0.65739 -0.02267,-0.35136 -0.01133,-0.34003 v -0.35135 l -0.01133,-0.35137 v -0.36269 l -0.01133,-0.3627 0.01133,-0.36269 v -0.3627 l 0.01133,-0.37403 v -0.37403 l 0.02267,-0.38537 0.01133,-0.38536 0.02267,-0.38536 0.02267,-0.3967 0.02267,-0.38537 0.034,-0.3967 0.034,-0.40803 0.034,-0.3967 0.04533,-0.40803 0.04534,-0.40804 0.04533,-0.41936 0.05667,-0.40804 0.05667,-0.41936 0.05668,-0.41937 0.06801,-0.41937 0.06801,-0.4307 0.07934,-0.41937 0.07934,-0.4307 0.07934,-0.4307 0.09067,-0.44203 0.09067,-0.43071 0.102009,-0.4307 0.102008,-0.44203 0.102008,-0.44204 0.113343,-0.44204 0.124677,-0.44203 0.124677,-0.44204 0.124676,-0.44204 0.136011,-0.45337 0.136011,-0.44202 0.147345,-0.45337 0.147345,-0.44204 0.15868,-0.45337 0.170014,-0.45337 0.170014,-0.44204 0.170014,-0.453367 0.181347,-0.453367 0.192683,-0.453367 0.192682,-0.453367 0.192682,-0.45337 0.21535,-0.442037 0.215352,-0.453367 0.21535,-0.453377 0.226685,-0.453367 0.238019,-0.453367 0.238019,-0.442038 0.249355,-0.45337 0.249353,-0.442036 0.260688,-0.453369 0.272021,-0.442038 0.272022,-0.442036 0.283357,-0.442034 0.29469,-0.442037 0.294691,-0.442035 0.306024,-0.442036 0.317359,-0.442036 0.328694,-0.430701 0.328693,-0.430701 0.328694,-0.430703 0.351361,-0.430701 0.351362,-0.430701 0.362696,-0.419368 0.374031,-0.430701 0.37403,-0.419367 0.385364,-0.408034 0.396699,-0.419367 0.408033,-0.408032 0.408033,-0.408034 0.419367,-0.408033 0.430702,-0.396698 0.442035,-0.396699 0.442036,-0.396699 0.45337,-0.396698 0.464704,-0.385365 0.476038,-0.385365 0.487374,-0.37403 0.487372,-0.385364 0.498708,-0.362696 0.510041,-0.374031 0.521375,-0.362695 0.53271,-0.362696 0.532709,-0.351363 0.555379,-0.351361 0.555376,-0.340027 0.56672,-0.340028 0.57804,-0.340028 0.58939,-0.328693 0.58938,-0.328693 0.61205,-0.317359 0.61205,-0.317359 0.62338,-0.306025 0.63472,-0.306024 0.64605,-0.294691 0.65739,-0.29469 0.66872,-0.283357 0.66871,-0.283356 0.6914,-0.272022 0.69139,-0.272022 0.71405,-0.260687 0.70273,-0.260689 v 0 l 0.15868,-0.04534 0.17001,-0.04533 0.15868,-0.02267 0.17001,-0.02267 h 0.17002 0.17001 l 0.17002,0.02267 0.15868,0.034 0.17,0.034 0.15869,0.05667 0.15868,0.06801 0.14734,0.06801 0.14735,0.09067 0.13601,0.09067 0.13601,0.102009 0.12467,0.113343 0.11335,0.124676 0.11334,0.136011 0.0907,0.136011 0.0907,0.136011 0.0794,0.15868 0.068,0.147345 0.0567,0.158679 0.0453,0.170014 0.034,0.15868 0.0226,0.170014 0.0113,0.170013 v 0.170014 l -0.0113,0.158679 -0.0226,0.170014 -0.034,0.170014 -0.0567,0.15868 -0.0567,0.158679 -0.068,0.15868 -0.0794,0.147345 -0.0907,0.136011 -0.10202,0.136011 -0.10201,0.136011 -0.12467,0.113342 -0.12467,0.113342 -0.13602,0.102009 -0.13601,0.102009 -0.14735,0.07934 -0.14734,0.06801 z"
           id="path4" />
        <path
           style="fill:#000000;fill-opacity:1;fill-rule:nonzero;stroke:none;stroke-width:0.23757"
           d="m 169.85493,121.99248 0.0907,-0.72539 v 0.0226 l 0.0794,-0.71406 v 0.034 l 0.068,-0.71405 v 0.0226 l 0.068,-0.70272 -0.0113,0.034 0.0567,-0.70273 v 0.034 l 0.0453,-0.69138 v 0.0226 l 0.034,-0.68005 v 0.034 l 0.0226,-0.68006 v 0.0226 l 0.0113,-0.66872 v 0.034 l 0.0113,-0.66872 v 0.034 -0.65739 0.034 l -0.0113,-0.65739 v 0.034 l -0.0113,-0.64605 v 0.034 l -0.034,-0.63472 v 0.0226 l -0.034,-0.62338 0.0113,0.034 -0.0453,-0.63472 v 0.034 l -0.0567,-0.62338 0.0113,0.034 -0.068,-0.61206 0.0113,0.034 -0.068,-0.60072 v 0.034 l -0.0794,-0.60071 0.0113,0.034 -0.0907,-0.60072 0.0113,0.034 -0.0907,-0.58938 v 0.034 l -0.0907,-0.57804 v 0.034 l -0.10201,-0.57805 v 0.034 l -0.10201,-0.56671 v 0.034 l -0.11334,-0.56671 v 0.034 l -0.12467,-0.55538 0.0113,0.034 -0.13601,-0.54405 0.0113,0.0226 -0.14735,-0.54404 0.0113,0.034 -0.14735,-0.53271 0.0113,0.034 -0.15867,-0.53272 0.0113,0.034 -0.15868,-0.53271 0.0113,0.034 -0.17002,-0.52137 0.0113,0.034 -0.17001,-0.51005 0.0113,0.034 -0.18135,-0.51004 0.0113,0.034 -0.18135,-0.4987 0.0113,0.0227 -0.18135,-0.48737 0.0113,0.034 -0.20401,-0.49871 0.0226,0.034 -0.20401,-0.487377 0.0113,0.034 -0.20402,-0.476037 0.0113,0.034 -0.21535,-0.476037 0.0113,0.034 -0.21535,-0.4647 0.0226,0.0227 -0.22669,-0.453367 0.0113,0.0227 -0.22669,-0.453367 0.0226,0.034 -0.23802,-0.453367 0.0113,0.034 -0.22669,-0.453377 0.0113,0.034 -0.23803,-0.44203 0.0113,0.034 -0.24934,-0.430707 0.0226,0.0227 -0.24935,-0.419367 0.0113,0.0227 -0.24936,-0.419367 0.0113,0.02267 -0.26069,-0.408035 0.0226,0.02267 -0.26069,-0.408035 0.0113,0.02267 -0.26069,-0.408032 0.0113,0.034 -0.27202,-0.408035 0.0226,0.034 -0.27202,-0.3967 0.0113,0.02267 -0.27202,-0.385365 0.0113,0.02267 -0.27202,-0.385364 0.0113,0.034 -0.28336,-0.385365 0.0226,0.02267 -0.29469,-0.362696 0.0226,0.02267 -0.29469,-0.37403 0.0226,0.02267 -0.29469,-0.362695 0.0226,0.02267 -0.29469,-0.351363 0.0113,0.02267 -0.2947,-0.351361 0.0226,0.02267 -0.30602,-0.351362 0.0226,0.02267 -0.30602,-0.340028 0.0113,0.02267 -0.30602,-0.328694 0.0226,0.01133 -0.30603,-0.328693 0.0113,0.02267 -0.30603,-0.328693 0.0226,0.02267 -0.31736,-0.317359 0.0226,0.01133 -0.31735,-0.306026 0.0226,0.01133 -0.31736,-0.306025 0.0113,0.02267 -0.31736,-0.306024 0.0226,0.01133 -0.31736,-0.29469 0.0113,0.01133 -0.31736,-0.294691 0.0226,0.02267 -0.3287,-0.294692 0.0226,0.02267 -0.31736,-0.283356 0.0113,0.01133 -0.31736,-0.283356 0.0113,0.02267 -0.3287,-0.272022 0.0226,0.01133 -0.32869,-0.272022 0.0226,0.01133 -0.3287,-0.260688 0.0226,0.01133 -0.3287,-0.260687 0.0113,0.02267 -0.31736,-0.260688 0.0113,0.01133 -0.3287,-0.249353 0.0226,0.01133 -0.3287,-0.238019 0.0113,0.01133 -0.3287,-0.249354 0.0226,0.02267 -0.32869,-0.23802 0.0226,0.01133 -0.3287,-0.238019 0.0113,0.01133 -0.3287,-0.226684 0.0226,0.01133 -0.32869,-0.21535 0.0113,0.01133 -0.31736,-0.226685 0.0113,0.01133 -0.32869,-0.215351 0.0226,0.01133 -0.32869,-0.204018 0.0226,0.01133 -0.3287,-0.204016 0.0113,0.01133 -0.31736,-0.204016 0.0113,0.01133 -0.31735,-0.204016 0.0113,0.01133 -0.31736,-0.192683 0.0113,0.01133 -0.31735,-0.181348 0.0226,0.01133 -0.32869,-0.192682 0.0226,0.01133 -0.31735,-0.181349 0.0113,0.01133 -0.30602,-0.170014 0.0113,0.01133 -0.31736,-0.170014 h 0.0226 l -0.31736,-0.158679 h 0.0226 l -0.31737,-0.15868 0.0226,0.01133 -0.30602,-0.158679 0.0113,0.01133 -0.30602,-0.158679 0.0226,0.01133 -0.30602,-0.158679 0.0113,0.01133 -0.29469,-0.147345 0.0113,0.01133 -0.2947,-0.147346 0.0113,0.01133 -0.29469,-0.136011 0.0226,0.01133 -0.29469,-0.136011 0.0226,0.01133 -0.57805,-0.260688 0.034,0.01133 -0.56671,-0.23802 0.034,0.01133 -0.55538,-0.226685 0.034,0.02267 -0.53271,-0.21535 0.034,0.01133 -0.52136,-0.192683 0.034,0.01133 -0.49872,-0.181348 0.034,0.01133 -0.48737,-0.158679 0.034,0.01133 -0.4647,-0.15868 0.034,0.01133 -0.44204,-0.136011 v 0 l -0.17001,-0.05667 -0.14734,-0.06801 -0.14735,-0.06801 -0.14706,-0.09068 -0.136,-0.102008 -0.13602,-0.102008 -0.12467,-0.113342 -0.11334,-0.124678 -0.10201,-0.136011 -0.10202,-0.136011 -0.0907,-0.147345 -0.068,-0.147345 -0.068,-0.158679 -0.0567,-0.15868 -0.0453,-0.158679 -0.034,-0.170014 -0.0113,-0.15868 -0.0113,-0.170014 v -0.168788 l 0.0113,-0.170014 0.034,-0.170014 0.034,-0.158679 0.0453,-0.158679 0.068,-0.15868 0.068,-0.158679 0.0794,-0.147346 0.0907,-0.136011 0.102,-0.136011 0.11334,-0.124677 0.12468,-0.124676 0.12468,-0.113343 0.13601,-0.102008 0.13601,-0.09067 0.14734,-0.07934 0.15868,-0.06801 0.15869,-0.06801 0.15868,-0.04533 0.17001,-0.034 0.15868,-0.034 0.17001,-0.01133 h 0.17002 l 0.17001,0.01133 0.17002,0.02267 0.15867,0.02267 0.17001,0.04534 v 0 l 0.46471,0.147345 0.49871,0.158679 0.52138,0.181348 0.54404,0.192682 0.54404,0.204017 0.57805,0.226684 0.57804,0.23802 0.60072,0.260688 0.60071,0.260688 0.31737,0.147345 0.30602,0.147345 0.31736,0.147345 0.31736,0.158679 0.31736,0.158681 0.32869,0.158679 0.32869,0.170014 0.31736,0.170013 0.3287,0.170014 0.34003,0.181348 0.32868,0.181348 0.34003,0.192682 0.32869,0.192683 0.34003,0.204016 0.34003,0.204017 0.34003,0.204016 0.34002,0.215351 0.34003,0.21535 0.35136,0.215352 0.34004,0.226684 0.34002,0.226685 0.35136,0.238019 0.34003,0.23802 0.35136,0.249353 0.35137,0.249354 0.34002,0.260688 0.35136,0.260687 0.34003,0.260688 0.35136,0.272022 0.34003,0.272022 0.35136,0.283356 0.34003,0.283356 0.34003,0.294691 0.35136,0.29469 0.34002,0.294691 0.34003,0.306025 0.34003,0.317359 0.34003,0.317358 0.32869,0.31736 0.34003,0.328693 0.32869,0.340027 0.34003,0.340028 0.32869,0.340028 0.31736,0.351361 0.32869,0.351362 0.3287,0.362695 0.31736,0.362697 0.31735,0.37403 0.31736,0.37403 0.30603,0.385365 0.30603,0.396699 0.30602,0.385364 0.30602,0.408033 0.2947,0.408033 0.29468,0.408033 0.29469,0.419367 0.28336,0.430702 0.28335,0.419367 0.28336,0.442035 0.27203,0.442037 0.27202,0.45337 0.27202,0.45337 0.26069,0.45337 0.24936,0.464705 0.26068,0.476038 0.23802,0.476036 0.24935,0.487377 0.23803,0.487367 0.22668,0.498707 0.22669,0.49871 0.21534,0.510037 0.21535,0.521377 0.20402,0.521377 0.20402,0.521367 0.20401,0.532707 0.18135,0.544047 0.18135,0.54404 0.18135,0.55538 0.17001,0.55537 0.15868,0.56671 0.15868,0.57806 0.14735,0.56671 0.14734,0.58937 0.13601,0.58939 0.12467,0.60071 0.11335,0.60072 0.11334,0.61205 0.10201,0.61205 0.10201,0.62338 0.0907,0.62339 0.0794,0.63471 0.068,0.63472 0.0567,0.65739 0.0566,0.64605 0.0454,0.65738 0.0453,0.66873 0.0226,0.66872 0.0226,0.68005 0.0113,0.69139 v 0.6914 l -0.0113,0.69138 -0.0226,0.71406 -0.0226,0.70272 -0.034,0.7254 -0.0453,0.71405 -0.0567,0.73673 -0.068,0.73673 -0.0794,0.73672 -0.0794,0.7594 -0.10201,0.73672 v 0 l -0.0226,0.17002 -0.0453,0.15868 -0.0454,0.15867 -0.0567,0.15868 -0.0794,0.15868 -0.0794,0.14735 -0.0907,0.13601 -0.10201,0.13601 -0.11334,0.12468 -0.12467,0.12467 -0.12468,0.10201 -0.13601,0.10201 -0.13601,0.0907 -0.14734,0.0907 -0.15869,0.068 -0.15868,0.0567 -0.15868,0.0453 -0.17,0.0453 -0.15869,0.0226 -0.17001,0.0113 h -0.17002 l -0.17001,-0.0113 -0.17002,-0.0113 -0.15867,-0.034 -0.17001,-0.0453 -0.15869,-0.0567 -0.14734,-0.068 -0.15868,-0.0794 -0.13601,-0.0907 -0.14734,-0.0907 -0.12469,-0.11335 -0.12467,-0.11334 -0.11334,-0.12468 -0.10201,-0.12467 -0.10201,-0.14735 -0.0794,-0.14735 -0.0794,-0.14734 -0.068,-0.15868 -0.0566,-0.15868 -0.034,-0.15868 -0.034,-0.17001 -0.0226,-0.15868 -0.0113,-0.17001 0.0113,-0.17002 z"
           id="path6"
           sodipodi:nodetypes="cccccccccccccccccccccccccccccccccccccccccccccccccccccccccccccccccccccccccccccccccccccccccccccccccccccccccccccccccccccccccccccccccccccccccccccccccccccccccccccccccccccccccccccccccccccccccccccccccccccccccccccccccccccccccccccccccccccccccccccccccccccccccccccccccccccccccccccccccccccccccccccccccccccccccccccccccccccccccccccccccccccccccccccccccccccccccccccccccccccccccccccccccccccccccccccccccccccccccccccccccccccccccccccccccccccccccccccccccccccccccccccccccc" />
        <path
           style="fill:#000000;fill-opacity:1;fill-rule:nonzero;stroke:none;stroke-width:0.23757"
           d="m 99.786573,154.44387 0.623387,0.48737 -0.0227,-0.0226 0.61205,0.47603 -0.0227,-0.0113 0.62339,0.46471 -0.0227,-0.0226 0.61205,0.45337 -0.0227,-0.0226 0.61205,0.44204 -0.0227,-0.0226 0.62339,0.4307 -0.034,-0.0226 0.61205,0.41937 -0.0227,-0.0226 0.61205,0.40804 -0.0226,-0.0226 0.61205,0.39669 -0.0226,-0.0226 0.61204,0.37403 -0.034,-0.0113 0.61206,0.3627 -0.0226,-0.0113 0.60072,0.35136 -0.0226,-0.0226 0.60071,0.35136 -0.0226,-0.0226 0.60072,0.32869 -0.0226,-0.0113 0.60072,0.31736 -0.0226,-0.0113 0.60071,0.30602 -0.034,-0.0113 0.60071,0.29469 -0.0226,-0.0226 0.60072,0.29469 -0.034,-0.0226 0.60071,0.28335 -0.034,-0.0226 0.60072,0.27202 -0.034,-0.0113 0.60071,0.24935 -0.034,-0.0113 0.58938,0.23802 -0.034,-0.0113 0.60071,0.23802 -0.034,-0.0226 0.58939,0.22669 -0.034,-0.0113 0.58938,0.21536 -0.034,-0.0113 0.58938,0.20402 -0.034,-0.0113 0.58938,0.19268 -0.034,-0.0113 0.57804,0.18134 -0.034,-0.0113 0.58939,0.17002 -0.034,-0.0113 0.57804,0.17002 -0.034,-0.0113 0.57805,0.14733 h -0.034 l 0.57805,0.13602 h -0.034 l 0.56672,0.13601 -0.034,-0.0113 0.57805,0.12468 -0.034,-0.0113 0.56671,0.12468 -0.034,-0.0113 0.56671,0.11334 -0.034,-0.0113 0.56671,0.10201 -0.034,-0.0113 0.55538,0.10201 -0.034,-0.0113 0.56671,0.0794 h -0.034 l 0.55538,0.0794 -0.034,-0.0113 0.55538,0.068 h -0.034 l 0.55538,0.0567 h -0.034 l 0.54404,0.0453 h -0.034 l 0.55538,0.0453 -0.034,-0.0113 0.54405,0.0453 -0.034,-0.0113 0.54404,0.034 h -0.034 l 0.53271,0.0113 h -0.0339 l 0.54404,0.0113 h -0.034 l 0.53271,0.0113 h -0.034 0.53271 -0.034 l 0.5327,-0.0113 h -0.034 l 0.52138,-0.0113 h -0.034 l 0.52138,-0.0226 h -0.0226 l 0.52138,-0.0226 h -0.034 l 0.51004,-0.034 h -0.0226 l 0.51004,-0.0453 -0.034,0.0113 0.51005,-0.0567 -0.0226,0.0113 0.4987,-0.0567 h -0.0226 l 0.4987,-0.0567 h -0.034 l 0.51005,-0.0567 h -0.034 l 0.4987,-0.068 h -0.034 l 0.4987,-0.0794 -0.034,0.0113 0.49872,-0.0794 h -0.034 l 0.48737,-0.0907 -0.0226,0.0113 0.47604,-0.0907 h -0.0226 l 0.47604,-0.0907 h -0.0226 l 0.47605,-0.10201 -0.0226,0.0113 0.4647,-0.11334 -0.0226,0.0113 0.47604,-0.11334 -0.034,0.0113 0.4647,-0.12467 -0.0226,0.0113 0.4647,-0.12467 -0.0226,0.0113 0.45337,-0.12467 h -0.0226 l 0.45337,-0.12467 -0.0226,0.0113 0.45337,-0.13601 -0.034,0.0113 0.45337,-0.13602 h -0.0226 l 0.44204,-0.13601 h -0.0226 l 0.44204,-0.13601 h -0.034 l 0.44203,-0.14734 -0.0226,0.0113 0.43071,-0.14734 h -0.0226 l 0.4307,-0.14735 h -0.0226 l 0.41936,-0.15868 -0.0226,0.0113 0.41937,-0.15868 -0.0226,0.0113 0.41936,-0.17001 -0.0226,0.0113 0.40804,-0.17001 -0.0226,0.0113 0.40804,-0.17002 -0.0226,0.0113 0.40802,-0.17001 h -0.0226 l 0.3967,-0.17002 -0.0226,0.0113 0.3967,-0.18135 -0.0226,0.0113 0.3967,-0.18134 -0.0226,0.0113 0.38536,-0.18135 -0.0226,0.0113 0.38536,-0.18135 -0.0226,0.0113 0.37403,-0.19268 -0.0226,0.0113 0.37403,-0.18135 h -0.0113 l 0.3627,-0.18135 -0.0226,0.0113 0.3627,-0.19268 -0.0113,0.0113 0.35136,-0.19269 -0.0113,0.0113 0.35136,-0.19268 -0.0226,0.0113 0.35137,-0.19268 h -0.0226 l 0.34003,-0.19268 -0.0113,0.0113 0.34002,-0.19268 -0.0226,0.0113 0.34002,-0.19268 h -0.0226 l 0.32869,-0.19269 -0.0113,0.0113 0.31735,-0.19268 h -0.0113 l 0.31736,-0.19269 -0.0226,0.0113 0.31736,-0.19268 h -0.0113 l 0.30602,-0.19268 -0.0226,0.0113 0.30603,-0.20401 -0.0113,0.0113 0.29469,-0.19268 -0.0113,0.0113 0.28336,-0.19269 h -0.0113 l 0.28336,-0.19268 -0.0113,0.0113 0.28335,-0.19268 -0.0113,0.0113 0.27202,-0.20402 -0.0113,0.0113 0.27203,-0.19269 -0.0226,0.0113 0.27202,-0.19268 -0.0226,0.0113 0.51003,-0.37403 -0.0226,0.0113 0.48737,-0.37404 -0.0226,0.0226 0.46471,-0.37403 -0.0226,0.0226 0.44203,-0.36269 -0.034,0.0226 0.43071,-0.3627 -0.034,0.034 0.40804,-0.35136 -0.034,0.0226 0.37404,-0.34002 v 0 l 0.136,-0.10201 0.13602,-0.10201 0.136,-0.0907 0.15869,-0.0794 0.14734,-0.068 0.15868,-0.0567 0.15868,-0.0453 0.17001,-0.034 0.17002,-0.0226 0.17001,-0.0113 h 0.15868 l 0.17001,0.0113 0.17002,0.0226 0.17001,0.034 0.15868,0.0453 0.15868,0.0567 0.15868,0.068 0.14735,0.0794 0.136,0.0907 0.13602,0.10201 0.136,0.11334 0.11334,0.11334 0.11335,0.12468 0.11334,0.13601 0.0907,0.13601 0.0794,0.14734 0.0794,0.14735 0.0567,0.15867 0.0566,0.15869 0.0454,0.17001 0.0226,0.15868 0.0226,0.17002 v 0.17001 0.17001 l -0.0226,0.17001 -0.0226,0.17002 -0.0454,0.15868 -0.0566,0.15868 -0.0567,0.15867 -0.0794,0.14735 -0.0794,0.14735 -0.10201,0.14734 -0.10201,0.12468 -0.11335,0.12468 -0.12467,0.12467 v 0 l -0.38536,0.35137 -0.4307,0.36269 -0.45337,0.38537 -0.47604,0.38536 -0.48737,0.3967 -0.52138,0.40803 -0.54404,0.39671 -0.28336,0.20401 -0.28335,0.20401 -0.2947,0.20402 -0.29469,0.21535 -0.29469,0.20402 -0.31736,0.20401 -0.30602,0.20402 -0.31736,0.21536 -0.3287,0.20401 -0.32869,0.20402 -0.32869,0.21535 -0.34003,0.20402 -0.34003,0.20401 -0.35135,0.20401 -0.35137,0.20403 -0.36269,0.20401 -0.3627,0.20402 -0.37403,0.20401 -0.37403,0.19268 -0.37403,0.20403 -0.38537,0.19268 -0.39669,0.20401 -0.38537,0.19268 -0.40803,0.19268 -0.3967,0.18135 -0.40804,0.19268 -0.41936,0.18135 -0.41937,0.19268 -0.41936,0.18135 -0.41937,0.17001 -0.43071,0.18135 -0.44203,0.17002 -0.44203,0.17001 -0.44204,0.15868 -0.45337,0.17002 -0.45337,0.15867 -0.45337,0.15868 -0.4647,0.14735 -0.46471,0.14734 -0.47604,0.14735 -0.47604,0.13601 -0.47604,0.13601 -0.47603,0.13601 -0.48738,0.12468 -0.49871,0.12468 -0.48736,0.11334 -0.51005,0.11334 -0.4987,0.11335 -0.51005,0.10201 -0.51004,0.0907 -0.51004,0.0907 -0.52138,0.0907 -0.52137,0.0794 -0.52137,0.0794 -0.53272,0.068 -0.53271,0.0567 -0.53271,0.0567 -0.54404,0.0567 -0.54405,0.034 -0.54404,0.0453 -0.54404,0.0226 -0.55538,0.0227 -0.55538,0.0226 h -0.56671 l -0.55538,0.0113 -0.56671,-0.0113 -0.56671,-0.0113 -0.57805,-0.0226 -0.56671,-0.034 -0.57805,-0.034 -0.57805,-0.0453 -0.58938,-0.0567 -0.58938,-0.0567 -0.57804,-0.068 -0.58938,-0.0794 -0.60072,-0.0907 -0.58938,-0.10201 -0.60072,-0.102 -0.60071,-0.11334 -0.60072,-0.12469 -0.60072,-0.136 -0.61204,-0.14735 -0.60072,-0.14735 -0.61205,-0.15868 -0.61204,-0.18134 -0.62339,-0.18135 -0.61205,-0.19268 -0.61205,-0.20403 -0.62338,-0.20401 -0.62338,-0.22668 -0.62339,-0.23803 -0.62339,-0.23801 -0.62338,-0.26069 -0.62339,-0.26069 -0.63471,-0.28335 -0.62338,-0.28336 -0.63472,-0.30603 -0.63472,-0.30602 -0.63472,-0.3287 -0.63471,-0.32868 -0.63472,-0.35137 -0.63472,-0.35136 -0.63472,-0.37403 -0.63472,-0.38536 -0.64605,-0.39671 -0.63473,-0.39669 -0.64604,-0.41937 -0.63473,-0.4307 -0.646047,-0.45337 -0.634722,-0.45337 -0.646052,-0.4647 -0.646052,-0.48738 -0.646052,-0.48737 -0.623385,-0.51005 v 0 l -0.13601,-0.102 -0.113343,-0.12468 -0.113342,-0.12467 -0.102008,-0.12468 -0.102009,-0.14734 -0.07934,-0.14735 -0.07934,-0.14735 -0.05667,-0.15867 -0.05667,-0.15869 -0.034,-0.17001 -0.034,-0.15868 -0.01133,-0.17002 -0.01133,-0.17 0.01133,-0.17002 0.02267,-0.17001 0.02267,-0.15869 0.04534,-0.17001 0.05667,-0.15868 0.05667,-0.15867 0.07934,-0.14735 0.07934,-0.14735 0.102008,-0.13601 0.102008,-0.13601 0.113343,-0.12468 0.124676,-0.11334 0.124677,-0.11334 0.136011,-0.0907 0.147346,-0.0907 0.147345,-0.0794 0.15868,-0.068 0.158679,-0.0567 0.158679,-0.0453 0.170014,-0.034 0.170014,-0.0226 0.158679,-0.0113 h 0.170014 l 0.170014,0.0113 0.170014,0.0226 0.158679,0.034 0.170014,0.0453 0.158679,0.068 0.147345,0.068 0.147347,0.0794 0.14734,0.0907 z"
           id="path8"
           sodipodi:nodetypes="cccccccccccccccccccccccccccccccccccccccccccccccccccccccccccccccccccccccccccccccccccccccccccccccccccccccccccccccccccccccccccccccccccccccccccccccccccccccccccccccccccccccccccccccccccccccccccccccccccccccccccccccccccccccccccccccccccccccccccccccccccccccccccccccccccccccccccccccccccccccccccccccccccccccccccccccccccccccccccccccccccccccccccccccccccccccccccccccccccccccccccccccccccccccccccccccccccccccccccccccccccccccccccccccccccccccccccccccccccccccccccccccccccccccc" />
      </g>
    </g>
  </g>
</svg>
