<svg width="16" height="16" xmlns="http://www.w3.org/2000/svg" xmlns:xlink="http://www.w3.org/1999/xlink" xml:space="preserve" overflow="hidden"><g transform="translate(-336 -125)"><path d="M348.8 127.133 339.2 127.133C338.611 127.133 338.133 127.611 338.133 128.2L338.133 137.8C338.133 138.389 338.611 138.867 339.2 138.867L348.8 138.867C349.389 138.867 349.867 138.389 349.867 137.8L349.867 128.2C349.867 127.611 349.389 127.133 348.8 127.133ZM341.842 136.733 340.269 136.733 340.269 131.671 341.842 131.671 341.842 136.733ZM341.039 130.947C340.532 130.947 340.122 130.536 340.122 130.03 340.122 129.524 340.533 129.113 341.039 129.113 341.545 129.113 341.956 129.524 341.956 130.03 341.956 130.536 341.545 130.947 341.039 130.947ZM347.735 136.733 346.163 136.733 346.163 134.271C346.163 133.684 346.153 132.929 345.346 132.929 344.527 132.929 344.401 133.569 344.401 134.229L344.401 136.733 342.829 136.733 342.829 131.671 344.338 131.671 344.338 132.363 344.359 132.363C344.57 131.965 345.083 131.545 345.848 131.545 347.441 131.545 347.735 132.594 347.735 133.957L347.735 136.733Z" fill="#FB7E14"/></g></svg>