<svg width="16" height="16" xmlns="http://www.w3.org/2000/svg" xmlns:xlink="http://www.w3.org/1999/xlink" xml:space="preserve" overflow="hidden"><defs><clipPath id="clip0"><rect x="336" y="165" width="16" height="16"/></clipPath></defs><g clip-path="url(#clip0)" transform="translate(-336 -165)"><path d="M7.97616 0C3.56555 0 0 3.59184 0 8.03543 0 11.5874 2.28457 14.5941 5.45388 15.6583 5.85012 15.7383 5.99527 15.4854 5.99527 15.2727 5.99527 15.0864 5.9822 14.4478 5.9822 13.7825 3.76343 14.2615 3.30139 12.8247 3.30139 12.8247 2.94482 11.8934 2.41649 11.654 2.41649 11.654 1.69029 11.1618 2.46939 11.1618 2.46939 11.1618 3.27494 11.215 3.69763 11.9866 3.69763 11.9866 4.41061 13.2104 5.55951 12.8647 6.02171 12.6518 6.08767 12.1329 6.2991 11.7737 6.52359 11.5742 4.75396 11.3879 2.89208 10.6962 2.89208 7.60963 2.89208 6.73159 3.20882 6.01322 3.71069 5.45453 3.63151 5.25502 3.35412 4.43004 3.79004 3.32588 3.79004 3.32588 4.46351 3.11298 5.98204 4.15069 6.63218 3.97481 7.30266 3.88532 7.97616 3.88457 8.64963 3.88457 9.33616 3.9778 9.97012 4.15069 11.4888 3.11298 12.1623 3.32588 12.1623 3.32588 12.5982 4.43004 12.3207 5.25502 12.2415 5.45453 12.7566 6.01322 13.0602 6.73159 13.0602 7.60963 13.0602 10.6962 11.1984 11.3745 9.41551 11.5742 9.70612 11.8269 9.9569 12.3058 9.9569 13.0642 9.9569 14.1417 9.94384 15.0065 9.94384 15.2725 9.94384 15.4854 10.0891 15.7383 10.4852 15.6584 13.6545 14.594 15.9391 11.5874 15.9391 8.03543 15.9522 3.59184 12.3736 0 7.97616 0Z" fill="#FB7E14" fill-rule="evenodd" transform="matrix(1 0 0 1.02083 336 165)"/></g></svg>