<svg width="16" height="15" xmlns="http://www.w3.org/2000/svg" xmlns:xlink="http://www.w3.org/1999/xlink" xml:space="preserve" overflow="hidden"><g transform="translate(-336 -205)"><path d="M7.5 12.0445 0 5.93751 7.5 0Z" fill="#FB7E14" transform="matrix(1.06667 0 0 1 336 205)"/><path d="M7.5 12.0445 15 5.93751 7.5 0Z" fill="#FB7E14" transform="matrix(1.06667 0 0 1 336 205)"/><path d="M11.875 10.625C11.875 13.0413 9.91624 15 7.5 15 5.08376 15 3.12501 13.0413 3.12501 10.625 3.12501 8.20877 5.08376 6.25002 7.5 6.25002 9.91624 6.25002 11.875 8.20877 11.875 10.625Z" fill="#FB7E14" transform="matrix(1.06667 0 0 1 336 205)"/><path d="M3.54601 8.75001C4.24819 7.27189 5.75476 6.24999 7.5 6.24999 9.24524 6.24999 10.7518 7.27189 11.454 8.75001L3.54601 8.75001Z" fill="#FB7E14" transform="matrix(1.06667 0 0 1 336 205)"/></g></svg>